<svg width="370" height="381" viewBox="0 0 370 381" fill="none" xmlns="http://www.w3.org/2000/svg">
<path d="M296.999 241L299.999 241L299.999 239.971L299.367 239.158L296.999 241ZM293.499 236.5L290.501 236.612L290.537 237.578L291.131 238.342L293.499 236.5ZM312.912 63.7147C313.307 62.1055 312.323 60.4811 310.713 60.0864C309.104 59.6917 307.48 60.6762 307.085 62.2853L312.912 63.7147ZM299.999 287.5L299.999 241L293.999 241L293.999 287.5L299.999 287.5ZM299.367 239.158L295.867 234.658L291.131 238.342L294.631 242.842L299.367 239.158ZM296.497 236.388C294.009 169.681 302.575 105.859 312.912 63.7147L307.085 62.2853C296.622 104.941 287.991 169.319 290.501 236.612L296.497 236.388Z" fill="white"/>
<path d="M74.0052 241L71.0052 241L71.0052 239.97L71.6373 239.158L74.0052 241ZM77.5059 236.5L80.5039 236.612L80.4678 237.579L79.8738 238.342L77.5059 236.5ZM56.5864 63.7148C56.1916 62.1057 57.1761 60.4812 58.7852 60.0864C60.3943 59.6916 62.0188 60.6761 62.4136 62.2852L56.5864 63.7148ZM71.0053 287.5L71.0052 241L77.0052 241L77.0053 287.5L71.0053 287.5ZM71.6373 239.158L75.1381 234.658L79.8738 238.342L76.373 242.842L71.6373 239.158ZM74.508 236.388C76.9945 169.728 66.9388 105.911 56.5864 63.7148L62.4136 62.2852C72.8658 104.889 83.0157 169.272 80.5039 236.612L74.508 236.388Z" fill="white"/>
<path d="M310 61.5C310 63.7152 308.126 66.9549 301.816 70.7139C295.764 74.3186 286.741 77.7046 275.24 80.6022C252.298 86.382 220.392 90 185 90C149.608 90 117.702 86.382 94.7604 80.6022C83.2592 77.7046 74.2361 74.3186 68.1844 70.7139C61.8737 66.9549 60 63.7152 60 61.5C60 59.2848 61.8737 56.0451 68.1844 52.2861C74.2361 48.6814 83.2592 45.2954 94.7604 42.3978C117.702 36.618 149.608 33 185 33C220.392 33 252.298 36.618 275.24 42.3978C286.741 45.2954 295.764 48.6814 301.816 52.2861C308.126 56.0451 310 59.2848 310 61.5Z" stroke="white" stroke-width="8"/>
<path d="M290.441 240C330.933 251.439 357 269.342 357 289.465C357 324.002 280.217 352 185.5 352C90.7832 352 14 324.002 14 289.465C14 269.422 39.8583 251.582 80.0737 240.138" stroke="white" stroke-width="8"/>
<path d="M297 287C297 300.807 247.08 312 185.5 312C123.92 312 74 300.807 74 287" stroke="white" stroke-width="6"/>
<path d="M293 236C293 247.046 244.871 256 185.5 256C126.129 256 78 247.046 78 236" stroke="white" stroke-width="6"/>
</svg>
