<svg width="141" height="106" viewBox="0 0 141 106" fill="none" xmlns="http://www.w3.org/2000/svg">
<path d="M2 75C2 32.6 39 8.66667 57.5 2C42.5 11.5 24.5 37 24.5 47C24.5 57 35.5 56 38 56C40.5 56 57.5 56.5 57.5 75C57.5 93.5 41.5 103.5 29 103.5C16.5 103.5 2 92.5 2 75Z" stroke="white" stroke-width="4" stroke-linejoin="round"/>
<path d="M83 75C83 32.6 120 8.66667 138.5 2C123.5 11.5 105.5 37 105.5 47C105.5 57 116.5 56 119 56C121.5 56 138.5 56.5 138.5 75C138.5 93.5 122.5 103.5 110 103.5C97.5 103.5 83 92.5 83 75Z" stroke="white" stroke-width="4" stroke-linejoin="round"/>
</svg>
