<svg width="2171" height="190" viewBox="0 0 2171 190" fill="none" xmlns="http://www.w3.org/2000/svg">
<path d="M990.648 95.5876C1043.24 95.5876 1084.92 48.5773 1084.92 0C1084.92 47.4021 1125.44 95.5876 1178.03 95.5876C1125.83 95.5876 1085.31 142.99 1085.31 190C1085.31 142.99 1043.24 95.5876 990.648 95.5876Z" fill="#C59B68"/>
<path d="M888.445 95.2874C914.557 95.2874 935.253 72.2686 935.253 48.4824C935.253 71.6931 955.368 95.2874 981.48 95.2874C955.562 95.2874 935.446 118.498 935.446 141.517C935.446 118.498 914.557 95.2874 888.445 95.2874Z" fill="#C59B68"/>
<path d="M1188.52 95.2874C1214.63 95.2874 1235.32 72.2686 1235.32 48.4824C1235.32 71.6931 1255.44 95.2874 1281.55 95.2874C1255.63 95.2874 1235.52 118.498 1235.52 141.517C1235.52 118.498 1214.63 95.2874 1188.52 95.2874Z" fill="#C59B68"/>
<circle cx="27.5" cy="95.5" r="27.5" fill="#C59B68"/>
<circle cx="2143.5" cy="95.5" r="27.5" fill="#C59B68"/>
<rect x="54" y="89" width="780" height="12" fill="#C59B68"/>
<rect x="1337" y="89" width="780" height="12" fill="#C59B68"/>
</svg>
