<svg width="1728" height="518" viewBox="0 0 1728 518" fill="none" xmlns="http://www.w3.org/2000/svg">
<path d="M709.695 234V147.942C708.2 147.568 706.705 147.288 705.21 147.101C703.715 146.914 702.033 146.82 700.164 146.82L681.243 151.165L680.402 141.214H752.584L751.883 151.165L732.821 146.82C730.953 146.82 729.271 146.914 727.776 147.101C726.281 147.288 724.786 147.568 723.291 147.942V234H709.695ZM766.622 234V141.214H780.217V182.701H822.686V141.214H836.281V234H822.686V188.028H780.217V234H766.622ZM861.476 234V141.214H917.68L916.279 150.605L890.209 146.26C887.499 146.26 884.976 146.493 882.64 146.961C880.304 147.334 877.782 147.895 875.072 148.643V182.701H906.187V188.028H875.072V228.954L918.521 224.609L917.12 234H861.476ZM975.219 234V141.214H988.114V234H975.219ZM1081.53 235.542L1020.14 158.734H1019.57V234H1013.41V141.214H1023.78L1077.18 208.631H1077.74V141.214H1083.91V235.542H1081.53ZM1151.83 235.682C1145.1 235.682 1138.66 234.794 1132.49 233.019C1126.32 231.15 1120.81 228.347 1115.95 224.609C1111.19 220.778 1107.4 216.013 1104.6 210.313C1101.79 204.613 1100.39 197.885 1100.39 190.13C1100.39 181.16 1101.98 173.498 1105.16 167.144C1108.43 160.696 1112.73 155.464 1118.05 151.446C1123.38 147.334 1129.22 144.344 1135.57 142.476C1141.93 140.513 1148.19 139.532 1154.35 139.532C1157.25 139.532 1160.29 139.766 1163.47 140.233C1166.64 140.7 1169.59 141.261 1172.3 141.915C1175.01 142.569 1177.11 143.176 1178.6 143.737L1177.2 153.268C1172.16 151.119 1167.16 149.25 1162.2 147.661C1157.34 146.073 1151.88 145.279 1145.81 145.279C1135.9 147.521 1128.33 152.427 1123.1 159.996C1117.87 167.471 1115.25 176.768 1115.25 187.887C1115.25 197.231 1116.93 205.127 1120.3 211.574C1123.75 217.928 1128.43 222.74 1134.31 226.011C1140.2 229.188 1146.93 230.776 1154.49 230.776C1159.45 230.776 1164.35 230.169 1169.21 228.954C1174.07 227.646 1177.95 225.731 1180.85 223.208V230.916C1178.04 232.038 1174.91 232.972 1171.45 233.72C1168 234.374 1164.54 234.841 1161.08 235.121C1157.72 235.495 1154.64 235.682 1151.83 235.682ZM1254.69 235.962L1222.17 189.709H1211.38V234H1197.64V141.214H1227.92C1233.99 141.214 1239.46 142.148 1244.31 144.017C1249.17 145.793 1253 148.456 1255.81 152.006C1258.7 155.464 1260.15 159.762 1260.15 164.901C1260.15 171.535 1257.63 176.815 1252.58 180.739C1247.54 184.57 1241.14 187.187 1233.38 188.588L1270.94 234L1254.69 235.962ZM1211.38 185.505H1220.35C1227.17 185.505 1232.35 184.524 1235.9 182.561C1239.55 180.599 1242.07 178.123 1243.47 175.133C1244.88 172.049 1245.58 168.872 1245.58 165.602C1245.58 165.135 1245.44 164.107 1245.16 162.518C1244.97 160.836 1244.41 158.968 1243.47 156.912C1242.54 154.763 1241 152.754 1238.85 150.885C1236.79 148.923 1233.9 147.428 1230.16 146.4C1227.45 146.4 1224.22 146.634 1220.49 147.101C1216.84 147.568 1213.81 148.129 1211.38 148.783V185.505ZM1287.02 234V141.214H1343.22L1341.82 150.605L1315.75 146.26C1313.04 146.26 1310.52 146.493 1308.18 146.961C1305.85 147.334 1303.33 147.895 1300.62 148.643V182.701H1331.73V188.028H1300.62V228.954L1344.07 224.609L1342.66 234H1287.02ZM1365.72 234V141.214H1392.21C1398.47 141.214 1404.78 142.102 1411.14 143.877C1417.49 145.559 1423.33 148.362 1428.66 152.287C1433.98 156.118 1438.23 161.164 1441.41 167.424C1444.68 173.591 1446.32 181.16 1446.32 190.13C1446.32 197.885 1444.91 204.566 1442.11 210.173C1439.31 215.686 1435.48 220.218 1430.62 223.768C1425.85 227.226 1420.39 229.795 1414.22 231.477C1408.05 233.159 1401.6 234 1394.88 234H1365.72ZM1392.07 229.235C1399.64 229.235 1406.37 227.74 1412.26 224.749C1418.24 221.759 1422.91 217.228 1426.27 211.154C1429.73 204.987 1431.46 197.231 1431.46 187.887C1431.46 180.692 1430.1 174.245 1427.39 168.545C1424.78 162.845 1421.13 158.08 1416.46 154.249C1411.88 150.418 1406.65 147.755 1400.76 146.26C1397.49 146.26 1393.76 146.54 1389.55 147.101C1385.44 147.661 1382.08 148.362 1379.46 149.203V227.973C1380.77 228.347 1382.64 228.674 1385.07 228.954C1387.5 229.141 1389.83 229.235 1392.07 229.235ZM1464.96 234V141.214H1477.85V234H1464.96ZM1503.15 234V141.214H1529.64C1536.46 141.214 1542.48 142.008 1547.72 143.597C1553.04 145.092 1557.2 147.428 1560.19 150.605C1563.27 153.782 1564.82 157.94 1564.82 163.079C1564.82 168.218 1562.99 172.703 1559.35 176.534C1555.71 180.365 1550.71 183.215 1544.35 185.084C1553.23 186.766 1559.72 189.756 1563.84 194.054C1568.04 198.259 1570.14 202.884 1570.14 207.93C1570.14 212.696 1568.88 216.76 1566.36 220.124C1563.93 223.488 1560.75 226.198 1556.83 228.253C1552.9 230.216 1548.74 231.664 1544.35 232.598C1540.06 233.533 1536.04 234 1532.3 234H1503.15ZM1516.74 183.683H1526.83C1533 183.683 1537.81 182.748 1541.27 180.879C1544.73 178.917 1547.16 176.394 1548.56 173.311C1549.96 170.227 1550.66 167.05 1550.66 163.78C1550.66 160.229 1549.45 156.865 1547.02 153.688C1544.59 150.418 1540.57 147.942 1534.96 146.26C1532.35 146.26 1529.26 146.54 1525.71 147.101C1522.16 147.661 1519.17 148.316 1516.74 149.063V183.683ZM1529.5 229.094C1533.79 229.094 1537.86 228.394 1541.69 226.992C1545.52 225.497 1548.6 223.254 1550.94 220.264C1553.37 217.274 1554.58 213.537 1554.58 209.052C1554.58 205.127 1553.37 201.576 1550.94 198.399C1548.51 195.129 1545.24 192.559 1541.13 190.691C1537.02 188.728 1532.44 187.747 1527.39 187.747H1516.74V227.693C1518.05 228.067 1519.92 228.394 1522.35 228.674C1524.87 228.954 1527.25 229.094 1529.5 229.094ZM1593.35 234V141.214H1607.08V226.431C1609.51 227.085 1611.94 227.693 1614.37 228.253C1616.89 228.721 1619.04 228.954 1620.82 228.954L1646.19 224.609L1644.51 234H1593.35ZM1661.65 234V141.214H1717.85L1716.45 150.605L1690.38 146.26C1687.67 146.26 1685.15 146.493 1682.81 146.961C1680.48 147.334 1677.95 147.895 1675.24 148.643V182.701H1706.36V188.028H1675.24V228.954L1718.69 224.609L1717.29 234H1661.65Z" fill="white"/>
<path d="M706.548 437.16L714.688 291.52H735.148L785.968 402.62L834.588 291.52H857.028L865.168 437.16H842.728L836.788 311.98H835.908L780.468 437.16H777.388L723.048 317.04H722.168L716.228 437.16H706.548ZM886.216 437.16L951.556 288H954.856L1020.2 437.16H996.216L979.716 397.56H914.376L898.096 437.16H886.216ZM917.676 389.2H976.196L947.156 317.92L917.676 389.2ZM1105.86 439.8C1095.59 439.8 1085.62 438.407 1075.94 435.62C1066.4 432.687 1057.75 428.287 1049.98 422.42C1042.35 416.553 1036.26 409.147 1031.72 400.2C1027.32 391.253 1025.12 380.693 1025.12 368.52C1025.12 354.44 1027.68 342.413 1032.82 332.44C1038.1 322.32 1044.92 314.033 1053.28 307.58C1061.78 301.127 1070.95 296.433 1080.78 293.5C1090.75 290.42 1100.43 288.88 1109.82 288.88C1114.36 288.88 1119.13 289.247 1124.12 289.98C1129.1 290.713 1133.72 291.593 1137.98 292.62C1142.23 293.647 1145.53 294.673 1147.88 295.7L1145.68 310.44C1137.17 306.773 1128.96 303.767 1121.04 301.42C1113.12 299.073 1104.9 297.9 1096.4 297.9C1081.73 301.567 1070.07 309.413 1061.42 321.44C1052.76 333.32 1048.44 347.84 1048.44 365C1048.44 379.667 1051.08 391.987 1056.36 401.96C1061.78 411.933 1069.12 419.487 1078.36 424.62C1087.6 429.607 1098.16 432.1 1110.04 432.1C1113.41 432.1 1116.78 431.953 1120.16 431.66C1123.53 431.22 1126.83 430.633 1130.06 429.9V374.46H1151.4V432.32C1147 434.08 1142.08 435.547 1136.66 436.72C1131.23 437.747 1125.8 438.48 1120.38 438.92C1115.1 439.507 1110.26 439.8 1105.86 439.8ZM1187.41 437.16V291.52H1207.65V437.16H1187.41ZM1314.45 439.8C1303.89 439.8 1293.77 438.407 1284.09 435.62C1274.41 432.687 1265.76 428.287 1258.13 422.42C1250.65 416.407 1244.71 408.927 1240.31 399.98C1235.91 391.033 1233.71 380.473 1233.71 368.3C1233.71 354.22 1236.2 342.193 1241.19 332.22C1246.32 322.1 1253.07 313.887 1261.43 307.58C1269.79 301.127 1278.96 296.433 1288.93 293.5C1298.9 290.42 1308.73 288.88 1318.41 288.88C1322.96 288.88 1327.72 289.247 1332.71 289.98C1337.7 290.713 1342.32 291.593 1346.57 292.62C1350.82 293.647 1354.12 294.6 1356.47 295.48L1354.27 310.44C1346.35 307.067 1338.5 304.133 1330.73 301.64C1323.1 299.147 1314.52 297.9 1304.99 297.9C1289.44 301.42 1277.56 309.12 1269.35 321C1261.14 332.733 1257.03 347.327 1257.03 364.78C1257.03 379.447 1259.67 391.84 1264.95 401.96C1270.38 411.933 1277.71 419.487 1286.95 424.62C1296.19 429.607 1306.75 432.1 1318.63 432.1C1326.4 432.1 1334.1 431.147 1341.73 429.24C1349.36 427.187 1355.44 424.18 1359.99 420.22V432.32C1355.59 434.08 1350.68 435.547 1345.25 436.72C1339.82 437.747 1334.4 438.48 1328.97 438.92C1323.69 439.507 1318.85 439.8 1314.45 439.8ZM1386.35 437.16V291.52H1406.59V437.16H1386.35ZM1428.7 437.16L1494.04 288H1497.34L1562.68 437.16H1538.7L1522.2 397.56H1456.86L1440.58 437.16H1428.7ZM1460.16 389.2H1518.68L1489.64 317.92L1460.16 389.2ZM1691.58 439.58L1595.22 319.02H1594.34V437.16H1584.66V291.52H1600.94L1684.76 397.34H1685.64V291.52H1695.32V439.58H1691.58Z" fill="white"/>
<path d="M546.074 65.0168L352.886 1.86123C349.187 0.603353 345.384 -0.017365 341.477 0.000369465C340.051 -0.00153066 338.629 0.0801852 337.213 0.244862C335.796 0.40954 334.394 0.65654 333.007 0.985261C331.619 1.31398 330.255 1.72314 328.916 2.21148C327.576 2.70044 326.269 3.26541 324.996 3.90702C323.722 4.54863 322.491 5.26308 321.301 6.04846C320.111 6.83448 318.971 7.687 317.881 8.60666C316.791 9.52632 315.759 10.5061 314.784 11.5468C313.809 12.5874 312.898 13.6813 312.051 14.8283L279.082 8.82518C275.239 8.2222 271.396 8.2222 267.553 8.82518C266.139 9.02152 264.743 9.30021 263.362 9.6606C261.981 10.021 260.627 10.4605 259.298 10.9799C257.969 11.4993 256.675 12.094 255.416 12.7648C254.157 13.4355 252.941 14.1778 251.769 14.9904C250.596 15.8037 249.476 16.6828 248.407 17.6272C247.338 18.5715 246.328 19.5754 245.376 20.6382C244.425 21.701 243.539 22.8164 242.719 23.9831C241.898 25.1497 241.148 26.3608 240.469 27.6155L207.02 26.2949C203.128 26.179 199.305 26.6388 195.551 27.6756C194.189 28.0778 192.854 28.5579 191.548 29.1147C190.241 29.6714 188.971 30.3022 187.738 31.0066C186.505 31.7109 185.316 32.4836 184.173 33.3253C183.029 34.1671 181.937 35.0722 180.899 36.0406C179.86 37.009 178.881 38.0338 177.961 39.1157C177.041 40.1975 176.186 41.3286 175.398 42.5099C174.609 43.6905 173.892 44.9129 173.244 46.1771C172.598 47.4413 172.026 48.7385 171.529 50.0686L138.261 53.4907C134.412 53.8574 130.708 54.798 127.151 56.3124C125.846 56.8913 124.58 57.5443 123.352 58.2708C122.123 58.9979 120.942 59.7934 119.806 60.6586C118.671 61.5238 117.59 62.4517 116.563 63.4429C115.536 64.4341 114.571 65.4817 113.667 66.5857C112.762 67.6897 111.926 68.8424 111.156 70.0445C110.386 71.2467 109.69 72.4887 109.065 73.772C108.441 75.0552 107.894 76.3701 107.424 77.7179C106.953 79.0651 106.563 80.435 106.252 81.8278L73.7642 89.8723C69.9893 90.8256 66.4462 92.326 63.1349 94.375C62.3121 94.8779 61.5109 95.4131 60.7306 95.9793C59.9503 96.5456 59.1934 97.1416 58.4606 97.768C57.7271 98.3944 57.0197 99.048 56.3388 99.7302C55.6573 100.412 55.0037 101.12 54.3779 101.853C53.7521 102.587 53.1567 103.344 52.5905 104.124C52.0249 104.905 51.4903 105.707 50.9881 106.529C50.4858 107.352 50.0165 108.193 49.5801 109.053C49.1443 109.913 48.7427 110.789 48.376 111.68C48.0093 112.571 47.678 113.476 47.3822 114.393C47.0871 115.311 46.8281 116.239 46.6057 117.177C46.3834 118.115 46.1985 119.06 46.0515 120.013C45.904 120.966 45.7944 121.923 45.7228 122.884C45.6512 123.846 45.617 124.809 45.6215 125.772C45.6259 126.736 45.6677 127.698 45.7482 128.659C45.8286 129.62 45.9464 130.575 46.1022 131.527C46.258 132.478 46.4512 133.422 46.6811 134.358L122.587 441.612C122.876 442.777 123.221 443.924 123.623 445.054C124.026 446.185 124.482 447.293 124.992 448.378C125.503 449.464 126.065 450.522 126.68 451.553C127.294 452.583 127.958 453.582 128.671 454.547C129.383 455.512 130.141 456.441 130.945 457.332C131.748 458.223 132.593 459.072 133.48 459.88C134.367 460.689 135.291 461.451 136.253 462.169C137.215 462.886 138.209 463.555 139.237 464.175C140.264 464.795 141.319 465.363 142.403 465.879C143.486 466.395 144.592 466.858 145.721 467.266C146.849 467.674 147.995 468.025 149.158 468.321C150.321 468.616 151.496 468.854 152.682 469.035C153.868 469.215 155.061 469.337 156.259 469.4C157.458 469.463 158.657 469.468 159.855 469.413C161.054 469.359 162.247 469.246 163.435 469.075C164.622 468.904 165.799 468.675 166.965 468.388L347.841 423.722L363.214 422.162L378.708 422.702L393.961 425.464L424.767 435.549C428.476 436.748 432.279 437.349 436.177 437.351C437.135 437.353 438.092 437.317 439.047 437.243C440.002 437.17 440.954 437.059 441.9 436.911C442.847 436.762 443.786 436.577 444.718 436.355C445.65 436.133 446.572 435.874 447.484 435.58C448.396 435.285 449.295 434.955 450.181 434.591C451.067 434.226 451.937 433.826 452.791 433.393C453.645 432.96 454.481 432.493 455.3 431.994C456.117 431.495 456.914 430.964 457.691 430.402C458.467 429.84 459.22 429.249 459.949 428.628C460.679 428.007 461.383 427.358 462.062 426.682C462.74 426.005 463.391 425.303 464.015 424.576C464.638 423.848 465.232 423.097 465.797 422.323C466.361 421.549 466.894 420.754 467.396 419.938C467.898 419.122 468.367 418.287 468.803 417.435C469.24 416.582 469.642 415.713 470.01 414.829C470.378 413.944 470.71 413.046 471.008 412.136L569.493 111.306C569.868 110.164 570.186 109.007 570.447 107.835C570.707 106.662 570.91 105.48 571.055 104.287C571.199 103.095 571.285 101.898 571.312 100.697C571.34 99.4964 571.307 98.2968 571.217 97.0991C571.126 95.9014 570.977 94.7107 570.769 93.5275C570.561 92.3444 570.296 91.1745 569.973 90.0174C569.65 88.8602 569.272 87.722 568.837 86.6022C568.403 85.4824 567.914 84.3867 567.371 83.3144C566.829 82.2427 566.236 81.1995 565.59 80.1861C564.946 79.1727 564.253 78.1929 563.511 77.2473C562.77 76.3016 561.985 75.3947 561.154 74.5263C560.324 73.658 559.453 72.8327 558.542 72.0498C557.63 71.267 556.683 70.5303 555.699 69.8406C554.715 69.1509 553.7 68.5111 552.654 67.9208C551.607 67.3305 550.534 66.7934 549.434 66.3089C548.336 65.8212 547.215 65.3912 546.074 65.0168Z" fill="black"/>
<path d="M334.81 47.7268L341.536 33.6786L338.833 49.0474L334.81 47.7268ZM337.332 58.2326L341.776 59.6735L346.58 28.9359L340.275 26.8945L326.223 54.63L330.847 56.1311L333.189 51.1483L338.233 52.7691L337.332 58.2326Z" fill="white"/>
<path d="M440.324 396.765L433.418 410.813L436.121 395.444L440.324 396.765ZM448.971 389.861L444.347 388.36L442.005 393.343L436.96 391.722L437.861 386.259L433.417 384.758L428.613 415.555L434.918 417.596L448.971 389.861Z" fill="white"/>
<path d="M455.393 374.492C456.414 371.31 453.472 367.768 448.728 369.148C448.951 368.26 449.378 367.485 450.01 366.821C450.641 366.158 451.394 365.693 452.271 365.426L448.548 364.225L444.825 362.965C445.37 363.7 445.701 364.522 445.819 365.431C445.936 366.339 445.825 367.217 445.485 368.068C445.278 367.668 445.017 367.305 444.706 366.979C444.394 366.652 444.043 366.377 443.653 366.151C443.263 365.925 442.848 365.758 442.41 365.65C441.972 365.543 441.528 365.498 441.077 365.517C440.626 365.536 440.187 365.617 439.76 365.761C439.332 365.906 438.934 366.106 438.563 366.364C438.193 366.622 437.867 366.927 437.583 367.277C437.3 367.628 437.072 368.012 436.898 368.428C435.877 371.55 436.117 372.931 438.7 377.013C440.266 379.629 441.227 382.451 441.582 385.478C443.645 383.233 446.087 381.532 448.908 380.375C453.351 378.634 454.372 377.674 455.393 374.492Z" fill="white"/>
<path d="M420.325 237.734C424.108 226.148 423.207 221.045 413.839 206.036C410.945 201.294 408.597 196.295 406.794 191.041C404.991 185.786 403.777 180.399 403.15 174.879C399.383 178.962 395.22 182.593 390.663 185.772C386.106 188.951 381.261 191.604 376.127 193.729C359.672 200.273 355.949 203.815 352.106 215.462C348.263 227.108 359.252 240.196 376.727 235.092C376.321 236.664 375.72 238.157 374.924 239.572C374.128 240.986 373.164 242.275 372.032 243.438C370.9 244.602 369.638 245.601 368.245 246.435C366.852 247.269 365.376 247.911 363.816 248.36L377.568 252.863L391.319 257.366C390.359 256.096 389.574 254.727 388.963 253.257C388.353 251.787 387.937 250.264 387.717 248.688C387.496 247.112 387.477 245.533 387.66 243.952C387.843 242.371 388.222 240.839 388.797 239.355C399.907 253.523 416.481 249.321 420.325 237.734Z" fill="white"/>
<path d="M323.044 79.0045L326.767 80.2054L330.49 81.4658C330.221 81.1035 330.004 80.7133 329.838 80.294C329.672 79.8754 329.562 79.4421 329.509 78.9943C329.457 78.5465 329.463 78.1 329.527 77.6541C329.592 77.2082 329.712 76.7775 329.889 76.3633C330.1 76.7547 330.362 77.1101 330.673 77.4286C330.984 77.7466 331.333 78.0158 331.72 78.2362C332.107 78.456 332.517 78.6187 332.949 78.7233C333.382 78.8278 333.821 78.8708 334.266 78.8518C334.71 78.8328 335.143 78.753 335.566 78.6124C335.988 78.4718 336.383 78.2755 336.75 78.0234C337.117 77.7713 337.442 77.4736 337.726 77.1303C338.009 76.787 338.239 76.4114 338.417 76.0029C339.438 72.881 339.198 71.5003 336.615 67.4182C335.049 64.8023 334.088 61.9813 333.733 58.9531C331.669 61.1978 329.228 62.899 326.407 64.0562C321.963 65.8575 320.942 66.8177 319.921 70.06C318.9 73.3016 321.842 76.7839 326.586 75.4031C326.345 76.2683 325.909 77.0207 325.28 77.6611C324.65 78.3002 323.905 78.7486 323.044 79.0045Z" fill="white"/>
<path d="M248.756 343.935L421.885 400.607L423.267 396.405L250.137 339.732C249.781 339.619 249.439 339.474 249.112 339.293C248.786 339.113 248.479 338.902 248.193 338.662C247.908 338.421 247.649 338.154 247.417 337.862C247.184 337.57 246.983 337.258 246.813 336.925C246.642 336.593 246.506 336.247 246.405 335.888C246.303 335.529 246.238 335.163 246.208 334.791C246.179 334.419 246.187 334.048 246.232 333.677C246.276 333.307 246.357 332.944 246.474 332.589L326.283 88.9706L322.079 87.5898L242.33 331.268C242.124 331.895 241.981 332.535 241.901 333.19C241.822 333.845 241.807 334.501 241.857 335.159C241.907 335.817 242.021 336.464 242.199 337.099C242.377 337.735 242.614 338.346 242.913 338.935C243.211 339.523 243.565 340.077 243.973 340.595C244.381 341.114 244.835 341.588 245.336 342.017C245.838 342.446 246.376 342.822 246.952 343.145C247.527 343.467 248.128 343.731 248.756 343.935Z" fill="white"/>
<path d="M535.505 106.08C535.708 105.449 535.846 104.805 535.922 104.147C535.998 103.489 536.009 102.83 535.956 102.17C535.903 101.51 535.785 100.86 535.605 100.223C535.424 99.586 535.184 98.9723 534.883 98.382C534.582 97.7917 534.227 97.2362 533.818 96.7162C533.408 96.1956 532.952 95.7193 532.449 95.288C531.946 94.8566 531.406 94.4779 530.829 94.1523C530.252 93.8268 529.649 93.5601 529.02 93.3524L358.173 37.4609L356.852 41.6634L527.699 97.5548C528.053 97.6701 528.391 97.8196 528.715 98.002C529.039 98.1844 529.342 98.3966 529.624 98.6391C529.906 98.8817 530.162 99.149 530.391 99.4416C530.62 99.7342 530.818 100.046 530.986 100.378C531.153 100.71 531.287 101.055 531.385 101.414C531.485 101.772 531.548 102.137 531.575 102.508C531.602 102.878 531.592 103.248 531.546 103.617C531.501 103.986 531.419 104.347 531.302 104.7L449.151 355.282L453.294 356.663L535.505 106.08Z" fill="white"/>
<path d="M169.188 62.3155L168.647 76.5436L141.744 79.3051C140.866 79.4058 140.006 79.5908 139.164 79.8593C138.323 80.1279 137.515 80.4743 136.74 80.8999C135.965 81.3256 135.239 81.8215 134.561 82.3877C133.883 82.9546 133.266 83.581 132.71 84.2676C132.154 84.9542 131.669 85.6876 131.256 86.4686C130.842 87.2495 130.508 88.0628 130.253 88.9083C129.998 89.7539 129.827 90.6165 129.739 91.4957C129.652 92.3748 129.65 93.2539 129.734 94.1337L157.898 367.588L157.537 378.094C157.433 380.86 157.644 383.601 158.171 386.319C158.699 389.036 159.529 391.657 160.66 394.183L161.621 403.608C161.718 404.487 161.9 405.349 162.166 406.193C162.432 407.036 162.777 407.846 163.202 408.622C163.626 409.398 164.121 410.126 164.688 410.805C165.255 411.484 165.882 412.103 166.57 412.659C167.258 413.216 167.992 413.701 168.775 414.113C169.557 414.526 170.372 414.86 171.22 415.113C172.067 415.366 172.932 415.535 173.812 415.62C174.692 415.705 175.573 415.703 176.454 415.616L184.681 414.775C187.336 415.488 190.039 415.888 192.788 415.976L279.262 419.218L177.174 429.724C176.363 429.807 175.549 429.85 174.734 429.853C173.919 429.856 173.105 429.819 172.293 429.743C171.482 429.666 170.675 429.549 169.875 429.394C169.074 429.238 168.284 429.043 167.502 428.81C166.721 428.576 165.953 428.305 165.198 427.996C164.443 427.688 163.706 427.343 162.985 426.962C162.264 426.58 161.564 426.165 160.884 425.715C160.205 425.265 159.548 424.783 158.916 424.269C158.283 423.755 157.677 423.211 157.098 422.637C156.519 422.063 155.968 421.463 155.448 420.834C154.928 420.207 154.44 419.555 153.984 418.879C153.528 418.203 153.106 417.507 152.718 416.79C152.33 416.073 151.978 415.339 151.662 414.587C151.346 413.835 151.068 413.07 150.827 412.291C150.587 411.512 150.385 410.724 150.221 409.925C150.058 409.126 149.934 408.321 149.85 407.511L116.942 92.3317C116.813 91.0352 116.785 89.7368 116.859 88.4365C116.933 87.1362 117.107 85.8491 117.383 84.5754C117.658 83.3023 118.031 82.0578 118.501 80.8429C118.971 79.6281 119.533 78.457 120.187 77.3296C120.84 76.2028 121.577 75.1331 122.398 74.1209C123.219 73.1094 124.114 72.1676 125.082 71.2955C126.05 70.4233 127.08 69.6322 128.173 68.9216C129.265 68.2109 130.406 67.5896 131.595 67.0569C134.027 65.965 136.569 65.2841 139.221 65.0156L169.188 62.3155ZM277.281 20.2918L306.767 25.5747L302.323 39.0827L275.72 34.34C275.284 34.2627 274.846 34.2064 274.404 34.1715C273.964 34.1367 273.521 34.124 273.079 34.1329C272.637 34.1418 272.196 34.1722 271.757 34.2241C271.317 34.276 270.882 34.3495 270.45 34.4445C270.018 34.5395 269.591 34.6554 269.17 34.7922C268.75 34.929 268.337 35.0861 267.931 35.2635C267.526 35.4408 267.13 35.6378 266.744 35.8538C266.358 36.0697 265.983 36.3047 265.62 36.5575C265.257 36.8108 264.908 37.0806 264.571 37.3682C264.235 37.6557 263.913 37.9591 263.607 38.2777C263.3 38.5969 263.01 38.9301 262.736 39.2771C262.462 39.6249 262.206 39.9846 261.967 40.3571C261.729 40.7295 261.51 41.1133 261.309 41.5072C261.108 41.9012 260.927 42.3047 260.766 42.7164C260.604 43.1281 260.464 43.5474 260.344 43.973C260.224 44.3986 260.125 44.8293 260.047 45.2651L211.225 316.079L207.922 326.044C207.067 328.676 206.523 331.371 206.29 334.129C206.057 336.887 206.141 339.635 206.541 342.373L205.22 351.679C205.14 352.114 205.082 352.553 205.045 352.994C205.009 353.436 204.994 353.878 205.002 354.32C205.009 354.763 205.038 355.205 205.089 355.645C205.14 356.085 205.213 356.521 205.307 356.954C205.401 357.387 205.516 357.814 205.653 358.235C205.789 358.657 205.946 359.07 206.123 359.476C206.3 359.882 206.497 360.279 206.713 360.665C206.929 361.051 207.164 361.426 207.417 361.79C207.671 362.153 207.942 362.503 208.229 362.839C208.518 363.176 208.822 363.497 209.141 363.804C209.461 364.111 209.795 364.401 210.143 364.674C210.491 364.948 210.852 365.204 211.226 365.441C211.6 365.679 211.984 365.898 212.38 366.098C212.775 366.298 213.18 366.478 213.593 366.638C214.006 366.798 214.426 366.937 214.853 367.055C215.28 367.174 215.712 367.271 216.149 367.346L224.316 368.848C226.67 370.267 229.152 371.408 231.762 372.27L313.974 399.165L212.726 381.155C211.924 381.012 211.13 380.83 210.345 380.609C209.56 380.388 208.787 380.13 208.028 379.833C207.269 379.536 206.526 379.203 205.799 378.834C205.072 378.464 204.365 378.059 203.678 377.62C202.991 377.181 202.327 376.709 201.687 376.204C201.047 375.699 200.433 375.165 199.845 374.6C199.257 374.035 198.698 373.442 198.169 372.822C197.639 372.202 197.142 371.558 196.675 370.889C196.209 370.22 195.777 369.53 195.379 368.818C194.981 368.107 194.618 367.378 194.292 366.631C193.966 365.883 193.677 365.122 193.426 364.347C193.174 363.572 192.961 362.786 192.787 361.989C192.613 361.193 192.479 360.39 192.384 359.58C192.289 358.771 192.234 357.958 192.219 357.143C192.204 356.328 192.229 355.514 192.294 354.701C192.36 353.889 192.464 353.081 192.609 352.278L248.217 40.7022C248.356 39.8909 248.535 39.0884 248.753 38.2954C248.972 37.5018 249.228 36.7209 249.524 35.9526C249.82 35.1843 250.152 34.4325 250.522 33.6971C250.891 32.9618 251.296 32.2461 251.737 31.5506C252.177 30.8552 252.651 30.1832 253.157 29.5346C253.663 28.886 254.2 28.2634 254.769 27.6674C255.337 27.0714 255.933 26.5052 256.556 25.9681C257.18 25.431 257.828 24.9255 258.502 24.453C259.176 23.9799 259.871 23.541 260.588 23.1369C261.305 22.7322 262.04 22.3642 262.793 22.0316C263.546 21.6998 264.315 21.4052 265.097 21.1487C265.879 20.8922 266.672 20.675 267.476 20.497C268.28 20.319 269.09 20.1809 269.907 20.0828C270.725 19.9846 271.545 19.927 272.368 19.9092C273.191 19.8921 274.013 19.9149 274.834 19.9789C275.655 20.0435 276.47 20.1474 277.281 20.2918ZM206.54 37.9414L236.566 39.0821L234.044 53.1303L207.02 52.1099C206.141 52.0897 205.267 52.1549 204.4 52.3056C203.533 52.4558 202.689 52.6888 201.867 53.0049C201.046 53.3203 200.262 53.7124 199.517 54.1811C198.773 54.6498 198.08 55.1856 197.44 55.7892C196.8 56.3934 196.224 57.0534 195.713 57.7691C195.202 58.4855 194.765 59.2443 194.402 60.0461C194.039 60.848 193.757 61.6771 193.557 62.5334C193.356 63.3903 193.24 64.258 193.209 65.1372L183 339.793L181.139 350.119C180.182 355.651 180.483 361.114 182.039 366.508L181.679 375.933C181.661 376.377 181.665 376.82 181.69 377.264C181.716 377.707 181.764 378.148 181.833 378.587C181.902 379.026 181.993 379.46 182.105 379.889C182.217 380.319 182.35 380.742 182.503 381.158C182.657 381.575 182.831 381.983 183.025 382.383C183.219 382.782 183.432 383.171 183.665 383.549C183.897 383.928 184.147 384.294 184.416 384.648C184.684 385.002 184.969 385.341 185.272 385.667C185.574 385.992 185.891 386.302 186.224 386.597C186.556 386.891 186.902 387.168 187.262 387.428C187.622 387.689 187.994 387.93 188.378 388.154C188.761 388.378 189.155 388.582 189.559 388.767C189.964 388.951 190.375 389.116 190.796 389.259C191.216 389.404 191.642 389.527 192.075 389.629C192.507 389.731 192.943 389.811 193.383 389.87C193.823 389.929 194.265 389.966 194.709 389.981H202.936C205.472 391.052 208.095 391.833 210.803 392.322L296.016 407.571L193.208 404.029C192.391 404.002 191.577 403.935 190.767 403.828C189.956 403.72 189.153 403.574 188.357 403.387C187.561 403.201 186.776 402.975 186.003 402.712C185.229 402.447 184.471 402.147 183.727 401.808C182.983 401.469 182.257 401.095 181.55 400.685C180.844 400.274 180.158 399.83 179.495 399.353C178.832 398.875 178.194 398.366 177.581 397.825C176.968 397.284 176.383 396.715 175.827 396.117C175.27 395.518 174.744 394.894 174.249 394.244C173.754 393.593 173.292 392.921 172.863 392.225C172.434 391.529 172.041 390.814 171.683 390.079C171.325 389.345 171.004 388.594 170.72 387.828C170.436 387.062 170.19 386.284 169.983 385.493C169.775 384.703 169.608 383.904 169.479 383.097C169.35 382.29 169.262 381.479 169.214 380.663C169.165 379.847 169.157 379.032 169.189 378.215L180.898 61.9551C180.949 60.6516 181.101 59.3602 181.354 58.0801C181.607 56.8007 181.958 55.5485 182.407 54.3236C182.857 53.0986 183.397 51.9161 184.031 50.776C184.665 49.636 185.384 48.5516 186.187 47.5237C186.991 46.4957 187.869 45.5368 188.822 44.6456C189.775 43.7551 190.792 42.9437 191.873 42.2122C192.952 41.4807 194.083 40.8371 195.264 40.2817C196.444 39.7262 197.661 39.2664 198.914 38.9016C201.408 38.2017 203.95 37.8818 206.54 37.9414ZM133.997 438.728L58.0913 131.475C57.8899 130.688 57.7278 129.893 57.6049 129.091C57.482 128.288 57.3991 127.481 57.3566 126.671C57.3142 125.86 57.311 125.049 57.3484 124.238C57.3858 123.427 57.463 122.62 57.5802 121.816C57.6974 121.013 57.8538 120.217 58.0502 119.429C58.2459 118.641 58.4809 117.864 58.7539 117.1C59.0268 116.335 59.3365 115.585 59.6836 114.851C60.0307 114.117 60.4133 113.402 60.8313 112.705C61.2493 112.009 61.7003 111.335 62.1848 110.684C62.6694 110.032 63.1849 109.406 63.7315 108.805C64.2781 108.204 64.8532 107.632 65.4562 107.089C66.0592 106.545 66.6881 106.032 67.3417 105.551C67.9954 105.069 68.6719 104.621 69.3698 104.207C70.0684 103.792 70.7854 103.413 71.5208 103.069C72.2567 102.725 73.0073 102.419 73.7737 102.15C74.5401 101.88 75.3172 101.649 76.1064 101.457L105.171 94.2527L106.613 108.421L80.4311 114.905C79.9997 115.01 79.5747 115.136 79.1561 115.283C78.7374 115.43 78.3264 115.597 77.9242 115.786C77.522 115.973 77.1299 116.18 76.748 116.406C76.3661 116.632 75.9962 116.877 75.6383 117.14C75.2805 117.403 74.9365 117.682 74.6059 117.978C74.2759 118.275 73.9605 118.587 73.661 118.914C73.3614 119.242 73.0788 119.583 72.8128 119.939C72.5468 120.294 72.2992 120.662 72.0693 121.041C71.84 121.421 71.6291 121.811 71.4378 122.212C71.2465 122.613 71.0755 123.021 70.9248 123.439C70.774 123.856 70.6442 124.28 70.5346 124.71C70.4257 125.14 70.3376 125.574 70.2718 126.013C70.2059 126.452 70.1609 126.893 70.1381 127.336C70.1153 127.78 70.1147 128.222 70.1356 128.666C70.1565 129.11 70.1996 129.551 70.2635 129.99C70.3281 130.429 70.4136 130.864 70.5213 131.294L136.578 398.146L137.659 408.591C138.257 414.162 140.039 419.325 143.003 424.08L145.285 433.265C145.391 433.694 145.517 434.117 145.664 434.533C145.81 434.95 145.978 435.359 146.165 435.759C146.352 436.159 146.558 436.55 146.784 436.93C147.009 437.31 147.253 437.678 147.516 438.034C147.777 438.389 148.056 438.731 148.352 439.06C148.647 439.389 148.958 439.702 149.285 439.999C149.611 440.297 149.952 440.578 150.306 440.843C150.66 441.107 151.027 441.353 151.406 441.582C151.784 441.81 152.173 442.019 152.572 442.209C152.971 442.399 153.379 442.568 153.795 442.718C154.211 442.867 154.633 442.997 155.062 443.104C155.49 443.213 155.923 443.299 156.36 443.365C156.797 443.43 157.237 443.474 157.678 443.496C158.119 443.518 158.561 443.518 159.002 443.497C159.444 443.475 159.883 443.432 160.32 443.368C160.757 443.303 161.191 443.217 161.619 443.11L169.667 441.129C172.389 441.461 175.111 441.461 177.833 441.129L263.947 432.304L164.081 456.918C163.29 457.113 162.492 457.268 161.686 457.384C160.88 457.501 160.07 457.577 159.257 457.614C158.444 457.65 157.63 457.647 156.817 457.604C156.004 457.561 155.195 457.478 154.39 457.355C153.585 457.232 152.788 457.071 151.999 456.87C151.21 456.669 150.433 456.43 149.667 456.152C148.901 455.875 148.151 455.561 147.417 455.21C146.682 454.859 145.966 454.473 145.27 454.052C144.573 453.63 143.898 453.176 143.246 452.689C142.594 452.201 141.967 451.683 141.366 451.134C140.765 450.584 140.192 450.007 139.648 449.402C139.103 448.796 138.59 448.166 138.107 447.51C137.625 446.854 137.176 446.177 136.76 445.477C136.344 444.777 135.964 444.058 135.619 443.321C135.274 442.584 134.965 441.831 134.694 441.064C134.425 440.298 134.192 439.519 133.997 438.728ZM558.084 107.581L459.599 408.411C459.348 409.188 459.059 409.95 458.733 410.698C458.407 411.446 458.045 412.176 457.646 412.888C457.248 413.6 456.815 414.291 456.349 414.96C455.882 415.63 455.383 416.275 454.853 416.895C454.323 417.515 453.763 418.108 453.174 418.673C452.585 419.238 451.97 419.773 451.328 420.277C450.687 420.782 450.022 421.254 449.334 421.692C448.646 422.131 447.937 422.535 447.21 422.904C446.481 423.273 445.737 423.605 444.976 423.9C444.215 424.196 443.441 424.453 442.655 424.672C441.868 424.891 441.074 425.07 440.269 425.211C439.465 425.351 438.656 425.452 437.842 425.512C437.028 425.573 436.213 425.593 435.397 425.574C434.581 425.554 433.768 425.494 432.958 425.394C432.148 425.294 431.345 425.154 430.549 424.975C429.753 424.795 428.967 424.577 428.192 424.32L235.245 361.105C234.469 360.852 233.708 360.562 232.961 360.234C232.214 359.907 231.484 359.543 230.774 359.144C230.062 358.745 229.373 358.311 228.704 357.844C228.036 357.376 227.392 356.878 226.772 356.347C226.153 355.817 225.561 355.257 224.997 354.668C224.432 354.079 223.898 353.464 223.395 352.823C222.891 352.182 222.42 351.517 221.982 350.829C221.544 350.142 221.14 349.434 220.772 348.707C220.403 347.979 220.071 347.236 219.775 346.476C219.48 345.715 219.222 344.943 219.003 344.157C218.784 343.372 218.603 342.578 218.462 341.775C218.321 340.971 218.22 340.163 218.158 339.35C218.097 338.537 218.075 337.723 218.094 336.908C218.112 336.093 218.171 335.28 218.269 334.471C218.368 333.661 218.506 332.859 218.683 332.062C218.861 331.266 219.077 330.482 219.332 329.707L317.817 28.8765C318.222 27.637 318.722 26.4368 319.316 25.2758C319.91 24.1148 320.591 23.007 321.36 21.9531C322.128 20.8992 322.973 19.9111 323.896 18.9902C324.82 18.0686 325.809 17.225 326.864 16.4592C327.92 15.6928 329.029 15.0139 330.191 14.4223C331.354 13.8301 332.555 13.3329 333.796 12.9294C335.036 12.526 336.3 12.2219 337.589 12.0174C338.877 11.8122 340.174 11.7096 341.478 11.7077C344.128 11.7115 346.71 12.1314 349.225 12.9687L542.411 76.1845C543.187 76.4372 543.949 76.7273 544.695 77.0547C545.442 77.3822 546.171 77.7457 546.882 78.1448C547.594 78.5438 548.283 78.977 548.952 79.4444C549.621 79.9119 550.265 80.4103 550.885 80.9411C551.504 81.4719 552.096 82.0312 552.66 82.6202C553.224 83.2092 553.758 83.8242 554.263 84.4652C554.767 85.1062 555.237 85.7712 555.676 86.4591C556.114 87.1469 556.517 87.8544 556.886 88.5815C557.255 89.3086 557.587 90.0528 557.882 90.8129C558.178 91.5729 558.435 92.3456 558.654 93.131C558.873 93.9164 559.054 94.7107 559.195 95.5138C559.336 96.3169 559.438 97.1251 559.499 97.9383C559.561 98.7516 559.582 99.5655 559.564 100.381C559.546 101.196 559.487 102.008 559.388 102.818C559.29 103.627 559.152 104.43 558.974 105.226C558.797 106.022 558.58 106.807 558.326 107.581L558.084 107.581ZM546.074 65.0168L352.886 1.86123C349.187 0.603353 345.384 -0.017365 341.477 0.000369465C340.051 -0.00153066 338.629 0.0801852 337.213 0.244862C335.796 0.40954 334.394 0.65654 333.007 0.985261C331.619 1.31398 330.255 1.72314 328.916 2.21148C327.576 2.70044 326.269 3.26541 324.996 3.90702C323.722 4.54863 322.491 5.26308 321.301 6.04846C320.111 6.83448 318.971 7.687 317.881 8.60666C316.791 9.52632 315.759 10.5061 314.784 11.5468C313.809 12.5874 312.898 13.6813 312.051 14.8283L279.082 8.82518C275.239 8.2222 271.396 8.2222 267.553 8.82518C266.139 9.02152 264.743 9.30021 263.362 9.6606C261.981 10.021 260.627 10.4605 259.298 10.9799C257.969 11.4993 256.675 12.094 255.416 12.7648C254.157 13.4355 252.941 14.1778 251.769 14.9904C250.596 15.8037 249.476 16.6828 248.407 17.6272C247.338 18.5715 246.328 19.5754 245.376 20.6382C244.425 21.701 243.539 22.8164 242.719 23.9831C241.898 25.1497 241.148 26.3608 240.469 27.6155L207.02 26.2949C203.128 26.179 199.305 26.6388 195.551 27.6756C194.189 28.0778 192.854 28.5579 191.548 29.1147C190.241 29.6714 188.971 30.3022 187.738 31.0066C186.505 31.7109 185.316 32.4836 184.173 33.3253C183.029 34.1671 181.937 35.0722 180.899 36.0406C179.86 37.009 178.881 38.0338 177.961 39.1157C177.041 40.1975 176.186 41.3286 175.398 42.5099C174.609 43.6905 173.892 44.9129 173.244 46.1771C172.598 47.4413 172.026 48.7385 171.529 50.0686L138.261 53.4907C134.412 53.8574 130.708 54.798 127.151 56.3124C125.846 56.8913 124.58 57.5443 123.352 58.2708C122.123 58.9979 120.942 59.7934 119.806 60.6586C118.671 61.5238 117.59 62.4517 116.563 63.4429C115.536 64.4341 114.571 65.4817 113.667 66.5857C112.762 67.6897 111.926 68.8424 111.156 70.0445C110.386 71.2467 109.69 72.4887 109.065 73.7719C108.441 75.0552 107.894 76.3701 107.424 77.7179C106.953 79.0651 106.563 80.435 106.252 81.8278L73.7642 89.8723C69.9893 90.8256 66.4462 92.326 63.1349 94.375C62.3121 94.8779 61.5109 95.4131 60.7306 95.9793C59.9503 96.5455 59.1934 97.1416 58.4606 97.768C57.7271 98.3944 57.0197 99.048 56.3388 99.7302C55.6573 100.412 55.0037 101.12 54.3779 101.853C53.7521 102.587 53.1567 103.344 52.5905 104.124C52.0249 104.905 51.4903 105.707 50.9881 106.529C50.4858 107.352 50.0165 108.193 49.5801 109.053C49.1443 109.913 48.7427 110.789 48.376 111.68C48.0093 112.571 47.678 113.476 47.3822 114.393C47.0871 115.311 46.8281 116.239 46.6057 117.177C46.3834 118.115 46.1985 119.06 46.0515 120.013C45.904 120.966 45.7944 121.923 45.7228 122.884C45.6512 123.846 45.617 124.809 45.6215 125.772C45.6259 126.736 45.6677 127.698 45.7482 128.659C45.8286 129.62 45.9464 130.575 46.1022 131.527C46.258 132.478 46.4512 133.422 46.6811 134.358L122.587 441.612C122.876 442.777 123.221 443.924 123.623 445.055C124.026 446.185 124.482 447.293 124.992 448.378C125.503 449.464 126.065 450.522 126.68 451.553C127.294 452.583 127.958 453.582 128.671 454.547C129.383 455.512 130.141 456.441 130.945 457.332C131.748 458.223 132.593 459.072 133.48 459.88C134.367 460.689 135.291 461.451 136.253 462.169C137.215 462.886 138.209 463.555 139.237 464.175C140.264 464.795 141.319 465.363 142.403 465.879C143.486 466.395 144.592 466.858 145.721 467.266C146.849 467.674 147.995 468.025 149.158 468.321C150.321 468.616 151.496 468.854 152.682 469.035C153.868 469.215 155.061 469.337 156.259 469.4C157.458 469.463 158.657 469.468 159.855 469.413C161.054 469.359 162.247 469.246 163.435 469.075C164.622 468.904 165.799 468.675 166.965 468.388L347.841 423.722L363.214 422.162L378.708 422.702L393.961 425.464L424.767 435.549C428.476 436.748 432.279 437.349 436.177 437.351C437.135 437.353 438.092 437.317 439.047 437.243C440.002 437.17 440.954 437.059 441.9 436.911C442.847 436.762 443.786 436.577 444.718 436.355C445.65 436.133 446.572 435.874 447.484 435.58C448.396 435.285 449.295 434.955 450.181 434.591C451.067 434.226 451.937 433.826 452.791 433.393C453.645 432.96 454.481 432.493 455.3 431.994C456.117 431.495 456.914 430.964 457.691 430.402C458.467 429.84 459.22 429.249 459.949 428.628C460.679 428.007 461.383 427.358 462.062 426.682C462.74 426.005 463.391 425.303 464.015 424.576C464.638 423.848 465.232 423.097 465.797 422.323C466.361 421.549 466.894 420.754 467.396 419.938C467.898 419.122 468.367 418.287 468.803 417.435C469.24 416.582 469.642 415.713 470.01 414.829C470.378 413.944 470.71 413.046 471.008 412.136L569.493 111.306C569.868 110.164 570.186 109.007 570.447 107.835C570.707 106.662 570.91 105.48 571.055 104.287C571.199 103.095 571.285 101.898 571.312 100.697C571.34 99.4964 571.307 98.2968 571.217 97.0991C571.126 95.9014 570.977 94.7107 570.769 93.5275C570.561 92.3444 570.296 91.1745 569.973 90.0174C569.65 88.8602 569.272 87.722 568.837 86.6022C568.403 85.4824 567.914 84.3867 567.371 83.3144C566.829 82.2427 566.236 81.1995 565.59 80.1861C564.946 79.1727 564.253 78.1929 563.511 77.2473C562.77 76.3017 561.985 75.3947 561.154 74.5263C560.324 73.658 559.453 72.8327 558.542 72.0498C557.63 71.267 556.683 70.5303 555.699 69.8406C554.715 69.1509 553.7 68.5111 552.654 67.9208C551.607 67.3305 550.534 66.7934 549.434 66.3089C548.336 65.8212 547.215 65.3912 546.074 65.0168Z" fill="white"/>
<path d="M334.81 47.7268L341.536 33.6786L338.833 49.0474L334.81 47.7268ZM337.332 58.2326L341.776 59.6735L346.58 28.9359L340.275 26.8945L326.223 54.63L330.847 56.1311L333.189 51.1483L338.233 52.7691L337.332 58.2326Z" fill="white"/>
<path d="M440.324 396.765L433.418 410.813L436.121 395.444L440.324 396.765ZM448.971 389.861L444.347 388.36L442.005 393.343L436.96 391.722L437.861 386.259L433.417 384.758L428.613 415.555L434.918 417.596L448.971 389.861Z" fill="white"/>
<path d="M455.393 374.492C456.414 371.31 453.472 367.768 448.728 369.148C448.951 368.26 449.378 367.485 450.01 366.821C450.641 366.158 451.394 365.693 452.271 365.426L448.548 364.225L444.825 362.965C445.37 363.7 445.701 364.522 445.819 365.431C445.936 366.339 445.825 367.217 445.485 368.068C445.278 367.668 445.017 367.305 444.706 366.979C444.394 366.652 444.043 366.377 443.653 366.151C443.263 365.925 442.848 365.758 442.41 365.65C441.972 365.543 441.528 365.498 441.077 365.517C440.626 365.536 440.187 365.617 439.76 365.761C439.332 365.906 438.934 366.106 438.563 366.364C438.193 366.622 437.867 366.927 437.583 367.277C437.3 367.628 437.072 368.012 436.898 368.428C435.877 371.55 436.117 372.931 438.7 377.013C440.266 379.629 441.227 382.451 441.582 385.478C443.645 383.233 446.087 381.532 448.908 380.375C453.351 378.634 454.372 377.674 455.393 374.492Z" fill="white"/>
<path d="M420.325 237.734C424.108 226.148 423.207 221.045 413.839 206.036C410.945 201.294 408.597 196.295 406.794 191.041C404.991 185.786 403.777 180.399 403.15 174.879C399.383 178.962 395.22 182.593 390.663 185.772C386.106 188.951 381.261 191.604 376.127 193.729C359.672 200.273 355.949 203.815 352.106 215.462C348.263 227.108 359.252 240.196 376.727 235.092C376.321 236.664 375.72 238.157 374.924 239.572C374.128 240.986 373.164 242.275 372.032 243.438C370.9 244.602 369.638 245.601 368.245 246.435C366.852 247.269 365.376 247.911 363.816 248.36L377.568 252.863L391.319 257.366C390.359 256.096 389.574 254.727 388.963 253.257C388.353 251.787 387.937 250.264 387.717 248.688C387.496 247.112 387.477 245.533 387.66 243.952C387.843 242.371 388.222 240.839 388.797 239.355C399.907 253.523 416.481 249.321 420.325 237.734Z" fill="white"/>
<path d="M323.044 79.0045L326.767 80.2054L330.49 81.4658C330.221 81.1035 330.004 80.7133 329.838 80.294C329.672 79.8754 329.562 79.4421 329.509 78.9943C329.457 78.5465 329.463 78.1 329.527 77.6541C329.592 77.2082 329.712 76.7775 329.889 76.3633C330.1 76.7547 330.362 77.1101 330.673 77.4286C330.984 77.7466 331.333 78.0158 331.72 78.2362C332.107 78.456 332.517 78.6187 332.949 78.7233C333.382 78.8278 333.821 78.8708 334.266 78.8518C334.71 78.8328 335.143 78.753 335.566 78.6124C335.988 78.4718 336.383 78.2755 336.75 78.0234C337.117 77.7713 337.442 77.4736 337.726 77.1303C338.009 76.787 338.239 76.4114 338.417 76.0029C339.438 72.881 339.198 71.5003 336.615 67.4182C335.049 64.8023 334.088 61.9813 333.733 58.9531C331.669 61.1978 329.228 62.899 326.407 64.0562C321.963 65.8575 320.942 66.8177 319.921 70.06C318.9 73.3016 321.842 76.7839 326.586 75.4031C326.345 76.2683 325.909 77.0207 325.28 77.6611C324.65 78.3002 323.905 78.7486 323.044 79.0045Z" fill="white"/>
<path d="M248.756 343.935L421.885 400.607L423.267 396.405L250.137 339.732C249.781 339.619 249.439 339.474 249.112 339.293C248.786 339.113 248.479 338.902 248.193 338.662C247.908 338.421 247.649 338.154 247.417 337.862C247.184 337.57 246.983 337.258 246.813 336.925C246.642 336.593 246.506 336.247 246.405 335.888C246.303 335.529 246.238 335.163 246.208 334.791C246.179 334.419 246.187 334.048 246.232 333.677C246.276 333.307 246.357 332.944 246.474 332.589L326.283 88.9706L322.079 87.5898L242.33 331.268C242.124 331.895 241.981 332.535 241.901 333.19C241.822 333.845 241.807 334.501 241.857 335.159C241.907 335.817 242.021 336.464 242.199 337.099C242.377 337.735 242.614 338.346 242.913 338.935C243.211 339.523 243.565 340.077 243.973 340.595C244.381 341.114 244.835 341.588 245.336 342.017C245.838 342.446 246.376 342.822 246.952 343.145C247.527 343.467 248.128 343.731 248.756 343.935Z" fill="white"/>
<path d="M535.505 106.08C535.708 105.449 535.846 104.805 535.922 104.147C535.998 103.489 536.009 102.83 535.956 102.17C535.903 101.51 535.785 100.86 535.605 100.223C535.424 99.586 535.184 98.9723 534.883 98.382C534.582 97.7917 534.227 97.2362 533.818 96.7162C533.408 96.1956 532.952 95.7193 532.449 95.288C531.946 94.8566 531.406 94.4779 530.829 94.1523C530.252 93.8268 529.649 93.5601 529.02 93.3524L358.173 37.4609L356.852 41.6634L527.699 97.5548C528.053 97.6701 528.391 97.8196 528.715 98.002C529.039 98.1844 529.342 98.3966 529.624 98.6391C529.906 98.8817 530.162 99.149 530.391 99.4416C530.62 99.7342 530.818 100.046 530.986 100.378C531.153 100.71 531.287 101.055 531.385 101.414C531.485 101.772 531.548 102.137 531.575 102.508C531.602 102.878 531.592 103.248 531.546 103.617C531.501 103.986 531.419 104.347 531.302 104.7L449.151 355.282L453.294 356.663L535.505 106.08Z" fill="white"/>
<path d="M580.179 241.915C579.946 241.127 579.65 240.362 579.294 239.621C578.937 238.88 578.524 238.171 578.054 237.497C577.584 236.822 577.062 236.19 576.491 235.599C575.919 235.008 575.303 234.466 574.644 233.974C573.986 233.482 573.291 233.046 572.562 232.665C571.833 232.284 571.078 231.964 570.299 231.705C569.518 231.446 568.722 231.25 567.91 231.118C567.098 230.986 566.281 230.921 565.459 230.921C564.49 230.831 563.52 230.831 562.551 230.921L559.098 231.648C558.762 230.506 558.344 229.395 557.845 228.315C557.345 227.236 556.769 226.198 556.117 225.202C555.464 224.207 554.743 223.265 553.952 222.376C553.162 221.486 552.31 220.66 551.397 219.896C550.484 219.132 549.521 218.439 548.506 217.817C547.492 217.195 546.437 216.651 545.342 216.184C544.247 215.717 543.124 215.333 541.974 215.031C540.822 214.73 539.655 214.514 538.472 214.384C535.136 214.31 531.813 214.483 528.503 214.905C525.193 215.327 521.932 215.992 518.722 216.901C515.511 217.809 512.386 218.951 509.345 220.326C506.305 221.701 503.383 223.294 500.581 225.106C485.86 232.647 387.725 278.895 369.37 299.975C363.464 304.246 358.012 308.516 353.287 312.424C342.202 302.883 324.301 300.794 299.949 300.794C275.597 300.794 257.696 302.883 246.52 312.424C242.885 309.425 238.887 306.245 234.526 303.337C224.167 283.984 116.4 233.374 101.316 225.469C98.5042 223.661 95.5736 222.07 92.5252 220.697C89.4767 219.324 86.3434 218.183 83.1253 217.275C79.9077 216.367 76.6402 215.701 73.3238 215.278C70.0075 214.854 66.6772 214.677 63.3349 214.748C62.1353 214.877 60.9527 215.095 59.7861 215.401C58.6194 215.707 57.4825 216.098 56.3741 216.575C55.2663 217.052 54.1997 217.608 53.1749 218.244C52.1501 218.88 51.1792 219.589 50.2601 220.37C49.3417 221.152 48.486 221.998 47.6943 222.907C46.902 223.817 46.1825 224.78 45.5352 225.797C44.8872 226.814 44.3191 227.875 43.8301 228.977C43.3411 230.079 42.9364 231.212 42.6172 232.375L37.3469 231.285C36.3474 231.195 35.348 231.195 34.3485 231.285C33.5289 231.286 32.7151 231.353 31.9069 231.486C31.098 231.618 30.3057 231.814 29.5279 232.075C28.7507 232.335 27.9996 232.655 27.2737 233.037C26.5485 233.418 25.8587 233.854 25.2032 234.346C24.5483 234.839 23.9371 235.38 23.369 235.971C22.8015 236.562 22.284 237.194 21.8178 237.868C21.3517 238.542 20.9425 239.249 20.5904 239.989C20.2382 240.728 19.9475 241.492 19.7182 242.278C13.8082 262.772 9.20355 283.555 5.90367 304.626C2.60506 325.698 0.636541 346.894 0 368.213C0 429.544 49.2493 507.413 51.3394 510.775C52.038 511.853 52.8576 512.829 53.7982 513.704C54.7394 514.578 55.7724 515.325 56.8985 515.943C58.0246 516.561 59.2084 517.033 60.4511 517.358C61.6944 517.683 62.958 517.851 64.2425 517.862H65.3325C68.6033 517.862 145.749 511.866 187.184 485.061C207.81 471.705 229.164 456.076 244.883 444.173C252.697 453.259 266.963 453.26 277.413 453.26H322.392C332.932 453.26 347.107 453.259 355.012 444.173C370.732 456.076 391.994 471.432 412.712 485.061C454.056 511.866 530.838 517.681 534.473 517.862H535.563C536.855 517.859 538.127 517.696 539.379 517.375C540.631 517.054 541.824 516.584 542.958 515.965C544.093 515.346 545.134 514.597 546.082 513.719C547.029 512.84 547.854 511.859 548.557 510.774C550.648 507.412 599.806 429.544 599.806 368.212C599.189 346.835 597.238 325.58 593.954 304.447C590.671 283.316 586.079 262.471 580.179 241.915Z" fill="black"/>
<path d="M497.309 277.896C528.113 268.81 558.19 257.907 567.639 254.363C576.232 286.488 581.684 319.138 583.995 352.312L581.632 353.221L573.818 356.037C570.819 357.127 567.457 358.309 563.732 359.49C556.281 362.034 547.376 364.578 537.835 367.122C528.294 369.666 518.026 371.847 507.668 373.846C497.309 375.845 486.859 377.208 476.955 378.389C467.05 379.57 457.873 380.206 449.695 380.479C445.697 380.479 442.062 380.479 438.791 380.479H430.431H423.161L430.431 381.206L438.791 381.751L449.604 382.75C457.601 382.75 466.959 382.75 476.864 382.75C486.769 382.75 497.672 381.933 508.303 380.933C518.935 379.934 529.657 378.48 539.652 376.844C549.648 375.209 558.824 373.301 566.912 371.393L577.634 368.758L584.268 367.031V367.667C584.268 405.829 562.914 452.259 548.376 479.337C523.751 476.611 498.945 473.612 474.683 468.706C482.756 468.989 490.813 468.747 498.853 467.979L505.487 467.433L511.393 466.524C515.027 465.979 518.208 465.525 520.479 464.889L528.658 463.253H520.298C517.662 463.253 514.482 463.253 511.211 463.253H505.396L498.944 462.618C488.819 461.557 478.824 459.769 468.958 457.257C457.891 454.466 447.109 450.831 436.61 446.353C426.248 441.799 416.283 436.499 406.715 430.452C402.263 427.363 397.628 424.637 393.993 421.366L388.269 417.096L383.09 412.825C381.726 411.775 380.424 410.655 379.183 409.463H380.636C399.627 413.097 425.07 416.913 450.603 419.458C476.136 422.002 501.761 423.274 520.933 423.547C530.019 423.547 538.47 423.547 544.104 423.547H553.191L544.104 423.001C538.47 423.001 530.565 422.184 521.023 421.275C501.942 419.639 476.681 416.55 451.602 412.188C426.523 407.827 401.807 402.103 383.452 397.196C374.366 394.834 366.642 392.563 361.372 391.018L356.919 389.655L362.372 386.202L370.64 381.114C373.82 379.115 377.546 376.934 381.544 374.663C401.201 363.395 421.434 353.28 442.243 344.315C453.692 339.408 465.231 335.228 476.226 330.958C487.221 326.688 497.489 323.508 506.394 320.872C510.937 319.419 515.026 318.238 518.66 317.238L527.747 314.603L536.107 312.423L527.656 313.876L517.933 315.693L505.394 318.238C496.307 320.146 485.585 322.781 474.227 325.688C462.868 328.596 450.784 332.321 438.879 336.318C416.899 343.553 395.424 352.063 374.456 361.85L362.825 367.393L353.739 371.936C354.4 363.761 355.975 355.764 358.464 347.948C359.799 344.4 360.698 340.744 361.159 336.981C361.62 333.217 361.63 329.453 361.19 325.687C372.286 316.131 384.148 307.643 396.774 300.224C409.4 292.804 422.586 286.573 436.335 281.528C469.412 269.901 503.032 260.149 537.196 252.271C524.929 257.904 509.936 264.538 494.398 270.443C458.87 284.89 421.706 296.157 421.706 296.157C421.706 296.157 460.233 288.797 497.306 277.803V277.896H497.309ZM299.949 316.513C329.207 316.513 340.202 320.057 345.382 326.689C350.561 333.322 338.567 350.222 338.567 376.845C338.567 378.844 338.567 380.752 338.567 382.569C336.868 377.5 335.626 372.321 334.841 367.032C334.475 364.804 334.233 362.563 334.114 360.308V357.673L333.205 360.218C332.44 362.391 331.804 364.602 331.298 366.85C329.522 373.888 328.583 381.036 328.48 388.294C328.416 395.294 329.053 402.229 330.389 409.101C326.244 410.992 321.939 412.39 317.474 413.295C313.01 414.2 308.5 414.589 303.947 414.462C298.721 414.975 293.499 414.948 288.28 414.382C283.061 413.816 277.955 412.722 272.961 411.1C273.011 410.525 273.011 409.949 272.961 409.374C273.794 401.242 274.006 393.095 273.597 384.932C273.105 377.011 272.045 369.166 270.417 361.399C269.054 355.13 267.782 351.131 267.782 351.131C267.782 351.131 267.782 355.311 266.51 361.489C265.277 368.914 263.52 376.214 261.24 383.387L260.694 384.932C260.694 382.387 260.694 379.753 260.694 376.845C260.694 350.222 248.609 333.322 253.879 326.689C259.149 320.057 270.689 316.422 299.948 316.422L299.949 316.513ZM16.3569 343.771C32.4902 343.349 48.6039 343.742 64.6979 344.953C83.4996 346.396 102.158 348.91 120.671 352.494C102.636 346.387 84.3116 341.328 65.6967 337.32C47.5233 333.323 28.3511 330.96 17.7199 329.779C20.7158 305.086 25.3495 280.705 31.6225 256.635C40.7088 258.816 65.2432 264.722 89.504 271.809C120.126 280.895 150.293 291.526 150.293 291.526C150.293 291.526 121.58 277.26 92.0482 264.812C80.8717 260.087 69.6046 255.726 59.9723 251.819C94.9459 259.794 129.353 269.728 163.196 281.622C176.937 286.68 190.121 292.918 202.746 300.337C215.371 307.756 227.236 316.237 238.342 325.78C237.902 329.546 237.912 333.311 238.372 337.074C238.833 340.838 239.731 344.493 241.067 348.042C243.513 355.804 245.087 363.739 245.792 371.848L238.25 367.032C234.706 364.67 230.527 362.216 225.983 359.49C216.897 354.13 206.175 348.405 194.453 342.59C182.732 336.775 169.828 331.414 156.925 326.417C144.022 321.42 130.665 317.331 118.035 313.878C106.596 310.873 95.0257 308.51 83.3242 306.791L75.9637 305.791C73.6012 305.791 71.3293 305.337 69.2398 305.155C65.0602 305.155 61.4252 304.428 58.4268 304.428H49.3398L58.4268 305.518C61.4252 305.518 64.9689 306.518 69.058 307.245C71.1481 307.245 73.3289 307.881 75.6002 308.426L82.7788 310.061C94.1441 312.759 105.321 316.09 116.308 320.056C128.303 324.417 140.842 329.778 153.109 335.593C165.376 341.408 177.279 348.042 188.184 354.584C199.087 361.126 208.992 367.668 217.17 373.665C221.259 376.572 224.984 379.298 228.256 381.842C231.527 384.386 234.344 386.476 236.616 388.384L240.614 391.837C234.526 390.837 226.348 389.656 216.626 388.475C195.454 385.749 167.104 383.296 138.754 382.296C124.579 381.751 110.404 381.66 97.1374 381.751C83.8714 381.842 71.5136 382.205 60.7912 382.75C50.0688 383.296 41.3454 383.84 35.258 384.386L25.5351 385.113H35.258C41.4366 385.113 50.2506 385.113 60.8824 385.113C71.5136 385.113 83.7808 385.658 97.2286 386.294C110.677 386.93 124.488 388.111 138.481 389.474C166.468 392.291 194.273 396.471 214.991 400.468C220.624 401.468 225.803 402.558 230.256 403.467L228.257 404.92C225.259 407.011 221.896 409.372 218.08 411.826C210.629 416.823 201.633 422.184 191.729 427.727C181.825 433.27 170.83 438.358 159.653 443.174C148.477 447.989 136.937 452.26 126.033 455.622C115.129 458.984 104.589 461.801 95.5026 463.709L88.9605 465.163L83.0543 466.253L73.4226 467.888L64.8809 469.16H73.5132C76.2386 469.16 79.5099 469.16 83.3267 469.16H89.4146H96.2298C105.316 469.16 116.584 468.07 128.396 466.797C140.209 465.525 152.748 463.163 165.288 460.528H166.197C164.016 461.255 161.835 461.891 159.654 462.436C124.203 471.468 88.2499 477.525 51.7967 480.608C37.2582 453.349 15.4505 406.738 15.4505 368.303C15.3574 359.853 15.721 351.767 16.3569 343.771ZM565.459 230.921C564.49 230.831 563.52 230.831 562.551 230.921L559.098 231.648C558.762 230.506 558.344 229.395 557.845 228.315C557.345 227.236 556.769 226.198 556.117 225.202C555.464 224.207 554.743 223.265 553.952 222.376C553.161 221.486 552.31 220.66 551.397 219.896C550.484 219.132 549.521 218.439 548.506 217.817C547.492 217.195 546.437 216.651 545.342 216.184C544.247 215.717 543.124 215.333 541.974 215.031C540.822 214.73 539.655 214.514 538.472 214.384C535.136 214.31 531.813 214.483 528.503 214.905C525.193 215.327 521.932 215.992 518.722 216.901C515.511 217.809 512.386 218.951 509.345 220.326C506.305 221.701 503.383 223.294 500.581 225.106C485.86 232.647 387.725 278.895 369.37 299.975C363.464 304.246 358.012 308.516 353.287 312.424C342.202 302.883 324.301 300.794 299.949 300.794C275.597 300.794 257.696 302.883 246.52 312.424C242.885 309.425 238.887 306.245 234.526 303.337C224.167 283.984 116.4 233.374 101.316 225.469C98.5042 223.661 95.5736 222.07 92.5252 220.697C89.4767 219.324 86.3434 218.183 83.1253 217.275C79.9077 216.367 76.6402 215.701 73.3238 215.278C70.0075 214.854 66.6772 214.677 63.3349 214.748C62.1353 214.877 60.9527 215.095 59.7861 215.401C58.6194 215.707 57.4825 216.098 56.3741 216.575C55.2663 217.052 54.1997 217.608 53.1749 218.244C52.1501 218.88 51.1792 219.589 50.2601 220.37C49.3417 221.152 48.486 221.998 47.6943 222.907C46.902 223.817 46.1825 224.78 45.5351 225.797C44.8872 226.814 44.3191 227.875 43.8301 228.977C43.3411 230.079 42.9364 231.212 42.6172 232.375L37.3469 231.285C36.3474 231.195 35.348 231.195 34.3485 231.285C33.5289 231.286 32.715 231.353 31.9069 231.486C31.098 231.618 30.3057 231.814 29.5279 232.075C28.7507 232.335 27.9996 232.655 27.2737 233.037C26.5485 233.418 25.8587 233.854 25.2032 234.346C24.5483 234.839 23.9371 235.38 23.369 235.971C22.8015 236.562 22.284 237.194 21.8178 237.868C21.3517 238.542 20.9425 239.249 20.5904 239.989C20.2382 240.728 19.9475 241.492 19.7182 242.278C13.8082 262.772 9.20355 283.555 5.90367 304.626C2.60506 325.698 0.636541 346.894 0 368.213C0 429.544 49.2493 507.413 51.3394 510.775C52.038 511.853 52.8576 512.829 53.7982 513.704C54.7394 514.578 55.7724 515.325 56.8985 515.943C58.0246 516.561 59.2084 517.033 60.4511 517.358C61.6944 517.683 62.958 517.851 64.2425 517.862H65.3325C68.6033 517.862 145.749 511.866 187.184 485.061C207.81 471.705 229.164 456.076 244.883 444.173C252.697 453.259 266.963 453.26 277.413 453.26H322.392C332.932 453.26 347.107 453.259 355.012 444.173C370.732 456.076 391.994 471.432 412.712 485.061C454.056 511.866 530.838 517.681 534.473 517.862H535.563C536.855 517.859 538.127 517.696 539.379 517.375C540.631 517.054 541.824 516.584 542.958 515.965C544.093 515.346 545.134 514.597 546.082 513.719C547.029 512.84 547.854 511.859 548.557 510.774C550.648 507.412 599.806 429.544 599.806 368.212C599.174 346.896 597.216 325.702 593.932 304.631C590.648 283.56 586.063 262.775 580.179 242.278C579.961 241.473 579.682 240.69 579.337 239.931C578.992 239.172 578.588 238.445 578.125 237.752C577.662 237.058 577.146 236.406 576.577 235.797C576.009 235.188 575.394 234.628 574.733 234.118C574.073 233.609 573.376 233.156 572.642 232.761C571.907 232.365 571.146 232.031 570.358 231.759C569.569 231.487 568.764 231.281 567.943 231.14C567.121 231 566.293 230.926 565.459 230.921Z" fill="white"/>
</svg>
